<svg height="512pt" viewBox="0 0 512 512.00069" width="512pt" xmlns="http://www.w3.org/2000/svg"><path d="m256.855469 178.625c7.046875 0 12.753906-5.710938 12.753906-12.753906 0-7.042969-5.707031-12.753906-12.753906-12.753906-56.347657 0-102.027344 45.679687-102.027344 102.03125 0 56.347656 45.679687 102.027343 102.027344 102.027343 56.351562 0 102.03125-45.679687 102.03125-102.027343 0-7.046876-5.710938-12.753907-12.753907-12.753907-7.042968 0-12.753906 5.707031-12.753906 12.753907 0 42.261718-34.257812 76.523437-76.523437 76.523437-42.261719 0-76.523438-34.261719-76.523438-76.523437 0-42.265626 34.261719-76.523438 76.523438-76.523438zm0 0"/><path d="m500.199219 179.394531c-2.214844-6.691406-9.433594-10.320312-16.128907-8.105469-6.539062 2.164063-10.179687 9.125-8.230468 15.730469 38.140625 121.457031-29.398438 250.835938-150.855469 288.976563-121.453125 38.140625-250.832031-29.398438-288.972656-150.855469-38.144531-121.457031 29.398437-250.835937 150.851562-288.976563 44.960938-14.117187 93.164063-14.117187 138.121094 0 6.75 2.035157 13.871094-1.785156 15.90625-8.535156 2.003906-6.648437-1.671875-13.675781-8.277344-15.824218-134.863281-42.3125-278.496093 32.714843-320.808593 167.582031-42.3125 134.863281 32.71875 278.496093 167.582031 320.808593 134.867187 42.3125 278.496093-32.714843 320.808593-167.582031 15.648438-49.875 15.648438-103.34375.003907-153.21875zm0 0"/><path d="m281.144531 91.117188c.066407-7.261719-5.511719-13.332032-12.753906-13.875-3.808594-.324219-7.621094-.648438-11.53125-.648438-98.613281 0-178.554687 79.941406-178.554687 178.554688 0 98.609374 79.941406 178.550781 178.554687 178.550781 98.609375 0 178.550781-79.941407 178.550781-178.550781 0-4.613282-.28125-9.222657-.847656-13.800782-1.019531-7-7.519531-11.847656-14.519531-10.828125-7 1.015625-11.847657 7.519531-10.832031 14.519531.039062.265626.085937.527344.140624.792969.277344 3.089844.550782 6.152344.550782 9.308594.003906 84.527344-68.515625 153.046875-153.039063 153.054687-84.527343.003907-153.046875-68.519531-153.050781-153.042968-.003906-84.523438 68.511719-153.046875 153.039062-153.050782h.003907c3.164062 0 6.230469.273438 9.3125.546876l2.390625.199218c6.664062.285156 12.296875-4.886718 12.578125-11.550781.003906-.0625.003906-.121094.007812-.179687zm0 0"/><path d="m333.378906 114.855469v45.734375l-85.539062 85.539062c-5.066406 4.894532-5.207032 12.96875-.3125 18.035156 4.894531 5.066407 12.96875 5.207032 18.035156.3125.105469-.101562.210938-.207031.3125-.3125l85.539062-85.539062h45.734376c3.382812 0 6.625-1.34375 9.019531-3.738281l76.519531-76.523438c4.980469-4.980469 4.980469-13.054687 0-18.035156-2.390625-2.390625-5.632812-3.734375-9.015625-3.734375h-38.261719v-38.261719c0-7.042969-5.710937-12.753906-12.757812-12.75-3.378906 0-6.621094 1.34375-9.011719 3.734375l-76.523437 76.523438c-2.394532 2.390625-3.738282 5.632812-3.738282 9.015625zm25.507813 5.28125 51.015625-51.015625v20.226562c0 7.042969 5.710937 12.753906 12.753906 12.753906h20.226562l-51.015624 51.015626h-32.980469zm0 0"/></svg>