<svg height="512" viewBox="0 0 64 64" width="512" xmlns="http://www.w3.org/2000/svg"><g id="Icon"><path d="m59.8711 31.5078a32.1857 32.1857 0 0 0 -27.8711-16.5078 32.1843 32.1843 0 0 0 -27.8706 16.5078 1.0015 1.0015 0 0 0 0 .9844 32.1843 32.1843 0 0 0 27.8706 16.5078 32.1857 32.1857 0 0 0 27.8711-16.5078 1.004 1.004 0 0 0 0-.9844zm-27.8711 15.4922a30.1626 30.1626 0 0 1 -25.8457-15 30.1626 30.1626 0 0 1 25.8457-15 30.1632 30.1632 0 0 1 25.8457 15 30.1632 30.1632 0 0 1 -25.8457 15z"/><path d="m32 21a11 11 0 1 0 11 11 11.0125 11.0125 0 0 0 -11-11zm0 20a9 9 0 1 1 9-9 9.01 9.01 0 0 1 -9 9z"/><path d="m32 12a1 1 0 0 0 1-1v-6a1 1 0 0 0 -2 0v6a1 1 0 0 0 1 1z"/><path d="m48.85 16.15a.9967.9967 0 0 0 .707-.293l4.2422-4.2422a1 1 0 0 0 -1.414-1.414l-4.2422 4.2422a1 1 0 0 0 .707 1.707z"/><path d="m14.4438 15.8574a1 1 0 1 0 1.4141-1.414l-4.2427-4.2422a1 1 0 0 0 -1.414 1.414z"/><path d="m32 52a1 1 0 0 0 -1 1v6a1 1 0 0 0 2 0v-6a1 1 0 0 0 -1-1z"/><path d="m49.5566 48.1426a1 1 0 0 0 -1.414 1.414l4.2422 4.2422a1 1 0 0 0 1.414-1.414z"/><path d="m14.4438 48.1426-4.2426 4.2422a1 1 0 1 0 1.414 1.414l4.2427-4.2422a1 1 0 1 0 -1.4141-1.414z"/><path d="m32 27a5 5 0 1 0 5 5 5.0059 5.0059 0 0 0 -5-5zm0 8a3 3 0 1 1 3-3 3.0033 3.0033 0 0 1 -3 3z"/></g></svg>